<?xml version="1.0" encoding="utf-8"?>
<!-- Generator: Adobe Illustrator 23.0.6, SVG Export Plug-In . SVG Version: 6.00 Build 0)  -->
<svg version="1.1" xmlns="http://www.w3.org/2000/svg" xmlns:xlink="http://www.w3.org/1999/xlink" x="0px" y="0px"
	 viewBox="0 0 691.2 340.2" style="enable-background:new 0 0 691.2 340.2;" xml:space="preserve">
<style type="text/css">
	.st0{fill:#FF4338;}
	.st1{fill:#012639;}
	.st2{display:none;}
	.st3{display:inline;fill:#B1B3B5;}
</style>
<g id="Layer_1">
	<g>
		<g>
			<polygon class="st0" points="143.3,109 143.3,134.3 129,134.3 123.8,143.1 162.5,143.1 			"/>
			<polygon class="st0" points="143.3,173.3 143.3,182.3 100.3,182.3 95.1,191.2 190.2,191.2 180.1,173.3 			"/>
			<polygon class="st0" points="166,149.3 143.3,149.3 143.3,158.2 115,158.2 109.7,167.1 176.1,167.1 			"/>
		</g>
		<g>
			<polygon class="st0" points="436.8,245.1 430.5,245.1 446.6,218.2 452.9,218.2 			"/>
		</g>
	</g>
	<g>
		<g>
			<path class="st1" d="M260.6,155.2c-1.3-8.3-6.8-13.9-15.3-13.9c-8.3,0-14.5,5.9-15.8,13.9H260.6z M228.9,163.3
				c0.1,9.5,6.5,18.4,16.7,18.4c8.2,0,12.6-4.1,16.6-10.8l9,5.1c-5.2,9.6-14.9,15.2-25.7,15.2c-17,0-27.3-12.8-27.3-29.1
				c0-17.1,9.1-29.9,27-29.9c17.7,0,26,13,26,29.5v1.7H228.9z"/>
			<path class="st1" d="M323.9,161.5c0-10.8-6.5-19.9-18-19.9c-11,0-17.5,9.6-17.5,19.9c0,10.4,6.3,20.1,17.5,20.1
				C317.5,181.7,323.9,172.4,323.9,161.5 M334,218.2h-10.7v-37.6h-0.2c-4.3,6.3-11,10.5-18.8,10.5c-17.1,0-26.6-14.1-26.6-30
				c0-15.2,10.1-29,26.1-29c8.3,0,14.9,4.3,19.3,10.9h0.2v-9.2H334V218.2z"/>
			<path class="st1" d="M356.3,133.8v30.7c0,8.9,2.2,16.7,12.8,16.7c10.5,0,12.8-7.8,12.8-16.7v-30.7h10.7v31.9
				c0,15.2-7.1,25.5-23.5,25.5c-16.4,0-23.5-10.3-23.5-25.5v-31.9H356.3z"/>
			<path class="st1" d="M452.9,146.5c-1.3-2.7-4-4.9-7.1-4.9c-3,0-5.8,2.4-5.8,5.5c0,4.9,6.4,7,12.9,9.9c6.5,3,12.8,7,12.8,15.8
				c0,10.5-8.8,18.4-19.1,18.4c-8.1,0-16.2-4.6-19.2-12.4l9.1-4.1c2.2,4.1,5,7.1,10.1,7.1c4.5,0,8.4-3.1,8.4-7.8c0-3-1.4-4.4-3.9-6
				l-10.4-5.6c-6.2-3.3-10.7-6.4-10.7-14c0-9,7.4-16.1,16.4-16.1c6.8,0,12.2,3.7,15.2,9.7L452.9,146.5z"/>
			<path class="st1" d="M482.5,161.9c0,10.4,8.4,19.3,19,19.3c10.6,0,19-8.9,19-19.3c0-10.5-8.4-19.3-19-19.3
				C490.9,142.6,482.5,151.4,482.5,161.9 M531.1,161.9c0,16.7-13,29.5-29.6,29.5c-16.6,0-29.6-12.8-29.6-29.5
				c0-16.7,13-29.5,29.6-29.5C518,132.4,531.1,145.2,531.1,161.9"/>
			<path class="st1" d="M585.7,134.1v-15.7H575v15.7h-6.7h-14.7v-14c0-5.5-0.1-15.1,7.5-15.2c2.7,0,5.8,0.5,7.2,0.9v-9.7
				c-1.6-0.5-4.9-1-7.5-1c-13.8,0-17.9,9.7-17.9,21.8v17.2h-4.9v10h4.9v45.5h10.7V144h14.7h6.7v45.5h10.7V144h10.4v-10H585.7z"/>
			<rect x="405.7" y="133.8" class="st1" width="10.7" height="55.6"/>
			<path class="st1" d="M417.7,115.8c0,3.7-3,6.6-6.7,6.6c-3.7,0-6.7-2.9-6.7-6.6c0-3.8,3-6.8,6.7-6.8
				C414.7,109.1,417.7,112.1,417.7,115.8"/>
		</g>
		<g>
			<g>
				<path class="st1" d="M481.1,222.1c1.6,1.2,2.8,2.8,3.4,4.8v-14.7h4v32.9h-4v-6.2c-0.7,2-1.8,3.6-3.4,4.8c-1.6,1.2-3.7,1.8-6,1.8
					c-2.2,0-4.1-0.5-5.8-1.5c-1.7-1-3-2.5-4-4.3c-1-1.9-1.4-4.1-1.4-6.7c0-2.6,0.5-4.8,1.4-6.7c1-1.9,2.3-3.4,4-4.4
					c1.7-1,3.6-1.5,5.8-1.5C477.5,220.3,479.5,220.9,481.1,222.1z M470.3,226.3c-1.5,1.6-2.2,3.8-2.2,6.6c0,2.8,0.7,5,2.2,6.6
					s3.5,2.4,6,2.4c1.6,0,3-0.4,4.3-1.1c1.3-0.7,2.2-1.8,3-3.1s1.1-2.9,1.1-4.7c0-1.8-0.4-3.4-1.1-4.7c-0.7-1.4-1.7-2.4-3-3.1
					s-2.7-1.1-4.3-1.1C473.8,223.9,471.8,224.7,470.3,226.3z"/>
				<path class="st1" d="M519.3,233.7h-19.5c0.1,2.8,0.9,4.9,2.4,6.3c1.5,1.4,3.3,2.1,5.5,2.1c2,0,3.6-0.5,4.9-1.5
					c1.3-1,2.1-2.3,2.4-4h4.3c-0.3,1.7-1,3.2-2,4.5s-2.4,2.4-4,3.1c-1.6,0.7-3.5,1.1-5.5,1.1c-2.3,0-4.4-0.5-6.2-1.5
					c-1.8-1-3.2-2.5-4.2-4.3s-1.5-4.1-1.5-6.7c0-2.6,0.5-4.8,1.5-6.7c1-1.9,2.4-3.4,4.2-4.4c1.8-1,3.9-1.5,6.2-1.5
					c2.4,0,4.4,0.5,6.2,1.5c1.8,1,3.1,2.4,4,4c0.9,1.7,1.4,3.6,1.4,5.6C519.5,232.4,519.4,233.1,519.3,233.7z M514.5,227.2
					c-0.7-1.2-1.6-2.1-2.8-2.7c-1.2-0.6-2.5-0.9-3.9-0.9c-2.2,0-4.1,0.7-5.6,2.1c-1.5,1.4-2.3,3.4-2.4,6.1h15.6
					C515.5,230,515.2,228.4,514.5,227.2z"/>
				<path class="st1" d="M540.7,222.5c1.7,1.4,2.7,3.4,3,5.8h-3.9c-0.2-1.5-0.8-2.6-1.8-3.6s-2.4-1.4-4.1-1.4c-1.5,0-2.6,0.3-3.4,1
					c-0.8,0.7-1.2,1.6-1.2,2.8c0,0.9,0.3,1.6,0.8,2.2s1.2,1,2,1.2s1.9,0.6,3.4,0.9c1.8,0.4,3.3,0.8,4.4,1.3c1.1,0.4,2.1,1.1,2.8,2.1
					c0.8,1,1.2,2.2,1.2,3.8c0,2-0.7,3.6-2.2,4.9s-3.5,1.9-6,1.9c-2.9,0-5.3-0.7-7.1-2.1c-1.8-1.4-2.9-3.3-3.2-5.8h3.9
					c0.1,1.5,0.8,2.7,1.9,3.6c1.1,0.9,2.6,1.4,4.5,1.4c1.4,0,2.5-0.4,3.3-1.1s1.2-1.6,1.2-2.8c0-0.9-0.3-1.7-0.8-2.3
					c-0.6-0.6-1.3-1-2.1-1.3c-0.8-0.3-2-0.6-3.4-0.9c-1.8-0.4-3.3-0.8-4.3-1.2c-1.1-0.4-2-1.1-2.8-2c-0.8-0.9-1.1-2.1-1.1-3.7
					c0-2,0.8-3.7,2.3-5c1.5-1.3,3.6-1.9,6.2-1.9C536.8,220.3,539,221.1,540.7,222.5z"/>
				<path class="st1" d="M551.2,211.7c0.5-0.5,1.2-0.7,2-0.7c0.8,0,1.5,0.2,2,0.7c0.5,0.5,0.8,1.1,0.8,1.8s-0.3,1.3-0.8,1.8
					c-0.5,0.5-1.2,0.7-2,0.7c-0.8,0-1.5-0.2-2-0.7c-0.5-0.5-0.8-1.1-0.8-1.8S550.7,212.1,551.2,211.7z M555.2,220.6v24.4h-4v-24.4
					H555.2z"/>
				<path class="st1" d="M579.5,222.1c1.6,1.2,2.8,2.8,3.4,4.8v-6.2h4v24.8c0,2.3-0.5,4.3-1.4,6c-1,1.8-2.3,3.1-4,4.1
					c-1.7,1-3.7,1.5-6,1.5c-3.3,0-6-0.8-8.1-2.4c-2.1-1.6-3.4-3.7-4-6.4h4c0.5,1.6,1.4,2.9,2.7,3.8c1.3,0.9,3,1.4,5.1,1.4
					c2.2,0,4-0.7,5.5-2.1c1.4-1.4,2.2-3.4,2.2-5.9v-6.6c-0.7,2-1.8,3.6-3.4,4.8c-1.6,1.2-3.7,1.8-6,1.8c-2.2,0-4.1-0.5-5.8-1.5
					c-1.7-1-3-2.5-4-4.3s-1.4-4.1-1.4-6.7c0-2.6,0.5-4.8,1.4-6.7c1-1.9,2.3-3.4,4-4.4c1.7-1,3.6-1.5,5.8-1.5
					C575.9,220.3,577.9,220.9,579.5,222.1z M568.7,226.3c-1.5,1.6-2.2,3.8-2.2,6.6c0,2.8,0.7,5,2.2,6.6s3.5,2.4,6,2.4
					c1.6,0,3-0.4,4.3-1.1c1.3-0.7,2.2-1.8,3-3.1s1.1-2.9,1.1-4.7c0-1.8-0.4-3.4-1.1-4.7c-0.7-1.4-1.7-2.4-3-3.1s-2.7-1.1-4.3-1.1
					C572.1,223.9,570.2,224.7,568.7,226.3z"/>
				<path class="st1" d="M615.1,223c1.8,1.8,2.6,4.5,2.6,7.9v14.2h-4v-13.8c0-2.4-0.6-4.3-1.9-5.6s-2.9-2-5.1-2
					c-2.2,0-4,0.7-5.3,2.2c-1.3,1.4-2,3.5-2,6.3v12.9h-4v-24.4h4v5.8c0.6-2,1.7-3.5,3.3-4.6c1.6-1.1,3.4-1.6,5.5-1.6
					C611.1,220.2,613.4,221.2,615.1,223z"/>
			</g>
		</g>
	</g>
</g>
<g id="Zone_Protection" class="st2">
	<path class="st3" d="M0,1024.2v95.1h95.1v-95.1H0z M46.8,1071.8L1,1117.6v-91.7L46.8,1071.8z M1.7,1025.2h91.7l-45.8,45.8
		L1.7,1025.2z M47.5,1072.5l45.8,45.8H1.7L47.5,1072.5z M48.3,1071.8l45.8-45.8v91.7L48.3,1071.8z"/>
	<path class="st3" d="M596.1,1024.2v95.1h95.1v-95.1H596.1z M642.9,1071.8l-45.8,45.8v-91.7L642.9,1071.8z M597.8,1025.2h91.7
		l-45.8,45.8L597.8,1025.2z M643.6,1072.5l45.8,45.8h-91.7L643.6,1072.5z M644.3,1071.8l45.8-45.8v91.7L644.3,1071.8z"/>
	<path class="st3" d="M596.1,779.1v95.1h95.1v-95.1H596.1z M642.9,826.7l-45.8,45.8v-91.7L642.9,826.7z M597.8,780.1h91.7L643.6,826
		L597.8,780.1z M643.6,827.4l45.8,45.8h-91.7L643.6,827.4z M644.3,826.7l45.8-45.8v91.7L644.3,826.7z"/>
	<path class="st3" d="M0,779.1v95.1h95.1v-95.1H0z M46.8,826.7L1,872.5v-91.7L46.8,826.7z M1.7,780.1h91.7L47.5,826L1.7,780.1z
		 M47.5,827.4l45.8,45.8H1.7L47.5,827.4z M48.3,826.7l45.8-45.8v91.7L48.3,826.7z"/>
</g>
</svg>
