<?xml version="1.0" encoding="UTF-8" standalone="no"?>
<!-- Generator: Adobe Illustrator 23.0.6, SVG Export Plug-In . SVG Version: 6.00 Build 0)  -->

<svg
   xmlns:dc="http://purl.org/dc/elements/1.1/"
   xmlns:cc="http://creativecommons.org/ns#"
   xmlns:rdf="http://www.w3.org/1999/02/22-rdf-syntax-ns#"
   xmlns:svg="http://www.w3.org/2000/svg"
   xmlns="http://www.w3.org/2000/svg"
   xmlns:sodipodi="http://sodipodi.sourceforge.net/DTD/sodipodi-0.dtd"
   xmlns:inkscape="http://www.inkscape.org/namespaces/inkscape"
   version="1.1"
   x="0px"
   y="0px"
   viewBox="0 0 522.59997 161.99999"
   xml:space="preserve"
   id="svg3837"
   sodipodi:docname="Equisoft-design-reverse.svg"
   width="522.59998"
   height="162"
   inkscape:version="0.92.3 (2405546, 2018-03-11)"><metadata
   id="metadata3843"><rdf:RDF><cc:Work
       rdf:about=""><dc:format>image/svg+xml</dc:format><dc:type
         rdf:resource="http://purl.org/dc/dcmitype/StillImage" /><dc:title></dc:title></cc:Work></rdf:RDF></metadata><defs
   id="defs3841" /><sodipodi:namedview
   pagecolor="#ffffff"
   bordercolor="#666666"
   borderopacity="1"
   objecttolerance="10"
   gridtolerance="10"
   guidetolerance="10"
   inkscape:pageopacity="0"
   inkscape:pageshadow="2"
   inkscape:window-width="1920"
   inkscape:window-height="1015"
   id="namedview3839"
   showgrid="false"
   fit-margin-top="0"
   fit-margin-left="0"
   fit-margin-right="0"
   fit-margin-bottom="0"
   inkscape:zoom="0.40075231"
   inkscape:cx="250.50001"
   inkscape:cy="86.999994"
   inkscape:window-x="0"
   inkscape:window-y="0"
   inkscape:window-maximized="1"
   inkscape:current-layer="svg3837" />
<style
   type="text/css"
   id="style3775">
	.st0{fill:#FF4338;}
	.st1{fill:#FFFFFF;}
	.st2{display:none;}
	.st3{display:inline;fill:#B1B3B5;}
</style>
<g
   id="Layer_1"
   transform="translate(-95.1,-95.1)">
	<g
   id="g3789">
		<g
   id="g3783">
			<polygon
   class="st0"
   points="129,134.3 123.8,143.1 162.5,143.1 143.3,109 143.3,134.3 "
   id="polygon3777"
   style="fill:#ff4338" />
			<polygon
   class="st0"
   points="100.3,182.3 95.1,191.2 190.2,191.2 180.1,173.3 143.3,173.3 143.3,182.3 "
   id="polygon3779"
   style="fill:#ff4338" />
			<polygon
   class="st0"
   points="143.3,158.2 115,158.2 109.7,167.1 176.1,167.1 166,149.3 143.3,149.3 "
   id="polygon3781"
   style="fill:#ff4338" />
		</g>
		<g
   id="g3787">
			<polygon
   class="st0"
   points="446.6,218.2 452.9,218.2 436.8,245.1 430.5,245.1 "
   id="polygon3785"
   style="fill:#ff4338" />
		</g>
	</g>
	<g
   id="g3825">
		<g
   id="g3807">
			<path
   class="st1"
   d="m 260.6,155.2 c -1.3,-8.3 -6.8,-13.9 -15.3,-13.9 -8.3,0 -14.5,5.9 -15.8,13.9 z m -31.7,8.1 c 0.1,9.5 6.5,18.4 16.7,18.4 8.2,0 12.6,-4.1 16.6,-10.8 l 9,5.1 c -5.2,9.6 -14.9,15.2 -25.7,15.2 -17,0 -27.3,-12.8 -27.3,-29.1 0,-17.1 9.1,-29.9 27,-29.9 17.7,0 26,13 26,29.5 v 1.7 h -42.3 z"
   id="path3791"
   inkscape:connector-curvature="0"
   style="fill:#ffffff" />
			<path
   class="st1"
   d="m 323.9,161.5 c 0,-10.8 -6.5,-19.9 -18,-19.9 -11,0 -17.5,9.6 -17.5,19.9 0,10.4 6.3,20.1 17.5,20.1 11.6,0.1 18,-9.2 18,-20.1 m 10.1,56.7 h -10.7 v -37.6 h -0.2 c -4.3,6.3 -11,10.5 -18.8,10.5 -17.1,0 -26.6,-14.1 -26.6,-30 0,-15.2 10.1,-29 26.1,-29 8.3,0 14.9,4.3 19.3,10.9 h 0.2 v -9.2 H 334 Z"
   id="path3793"
   inkscape:connector-curvature="0"
   style="fill:#ffffff" />
			<path
   class="st1"
   d="m 356.3,133.8 v 30.7 c 0,8.9 2.2,16.7 12.8,16.7 10.5,0 12.8,-7.8 12.8,-16.7 v -30.7 h 10.7 v 31.9 c 0,15.2 -7.1,25.5 -23.5,25.5 -16.4,0 -23.5,-10.3 -23.5,-25.5 v -31.9 z"
   id="path3795"
   inkscape:connector-curvature="0"
   style="fill:#ffffff" />
			<path
   class="st1"
   d="m 452.9,146.5 c -1.3,-2.7 -4,-4.9 -7.1,-4.9 -3,0 -5.8,2.4 -5.8,5.5 0,4.9 6.4,7 12.9,9.9 6.5,3 12.8,7 12.8,15.8 0,10.5 -8.8,18.4 -19.1,18.4 -8.1,0 -16.2,-4.6 -19.2,-12.4 l 9.1,-4.1 c 2.2,4.1 5,7.1 10.1,7.1 4.5,0 8.4,-3.1 8.4,-7.8 0,-3 -1.4,-4.4 -3.9,-6 l -10.4,-5.6 c -6.2,-3.3 -10.7,-6.4 -10.7,-14 0,-9 7.4,-16.1 16.4,-16.1 6.8,0 12.2,3.7 15.2,9.7 z"
   id="path3797"
   inkscape:connector-curvature="0"
   style="fill:#ffffff" />
			<path
   class="st1"
   d="m 482.5,161.9 c 0,10.4 8.4,19.3 19,19.3 10.6,0 19,-8.9 19,-19.3 0,-10.5 -8.4,-19.3 -19,-19.3 -10.6,0 -19,8.8 -19,19.3 m 48.6,0 c 0,16.7 -13,29.5 -29.6,29.5 -16.6,0 -29.6,-12.8 -29.6,-29.5 0,-16.7 13,-29.5 29.6,-29.5 16.5,0 29.6,12.8 29.6,29.5"
   id="path3799"
   inkscape:connector-curvature="0"
   style="fill:#ffffff" />
			<path
   class="st1"
   d="M 585.7,134.1 V 118.4 H 575 v 15.7 h -6.7 -14.7 v -14 c 0,-5.5 -0.1,-15.1 7.5,-15.2 2.7,0 5.8,0.5 7.2,0.9 v -9.7 c -1.6,-0.5 -4.9,-1 -7.5,-1 -13.8,0 -17.9,9.7 -17.9,21.8 v 17.2 H 538 v 10 h 4.9 v 45.5 h 10.7 V 144 h 14.7 6.7 v 45.5 h 10.7 V 144 h 10.4 v -10 h -10.4 z"
   id="path3801"
   inkscape:connector-curvature="0"
   style="fill:#ffffff" />
			<rect
   x="405.70001"
   y="133.8"
   class="st1"
   width="10.7"
   height="55.599998"
   id="rect3803"
   style="fill:#ffffff" />
			<path
   class="st1"
   d="m 417.7,115.8 c 0,3.7 -3,6.6 -6.7,6.6 -3.7,0 -6.7,-2.9 -6.7,-6.6 0,-3.8 3,-6.8 6.7,-6.8 3.7,0.1 6.7,3.1 6.7,6.8"
   id="path3805"
   inkscape:connector-curvature="0"
   style="fill:#ffffff" />
		</g>
		<g
   id="g3823">
			<g
   id="g3821">
				<path
   class="st1"
   d="m 481.1,222.1 c 1.6,1.2 2.8,2.8 3.4,4.8 v -14.7 h 4 v 32.9 h -4 v -6.2 c -0.7,2 -1.8,3.6 -3.4,4.8 -1.6,1.2 -3.7,1.8 -6,1.8 -2.2,0 -4.1,-0.5 -5.8,-1.5 -1.7,-1 -3,-2.5 -4,-4.3 -1,-1.9 -1.4,-4.1 -1.4,-6.7 0,-2.6 0.5,-4.8 1.4,-6.7 1,-1.9 2.3,-3.4 4,-4.4 1.7,-1 3.6,-1.5 5.8,-1.5 2.4,-0.1 4.4,0.5 6,1.7 z m -10.8,4.2 c -1.5,1.6 -2.2,3.8 -2.2,6.6 0,2.8 0.7,5 2.2,6.6 1.5,1.6 3.5,2.4 6,2.4 1.6,0 3,-0.4 4.3,-1.1 1.3,-0.7 2.2,-1.8 3,-3.1 0.8,-1.3 1.1,-2.9 1.1,-4.7 0,-1.8 -0.4,-3.4 -1.1,-4.7 -0.7,-1.4 -1.7,-2.4 -3,-3.1 -1.3,-0.7 -2.7,-1.1 -4.3,-1.1 -2.5,-0.2 -4.5,0.6 -6,2.2 z"
   id="path3809"
   inkscape:connector-curvature="0"
   style="fill:#ffffff" />
				<path
   class="st1"
   d="m 519.3,233.7 h -19.5 c 0.1,2.8 0.9,4.9 2.4,6.3 1.5,1.4 3.3,2.1 5.5,2.1 2,0 3.6,-0.5 4.9,-1.5 1.3,-1 2.1,-2.3 2.4,-4 h 4.3 c -0.3,1.7 -1,3.2 -2,4.5 -1,1.3 -2.4,2.4 -4,3.1 -1.6,0.7 -3.5,1.1 -5.5,1.1 -2.3,0 -4.4,-0.5 -6.2,-1.5 -1.8,-1 -3.2,-2.5 -4.2,-4.3 -1,-1.8 -1.5,-4.1 -1.5,-6.7 0,-2.6 0.5,-4.8 1.5,-6.7 1,-1.9 2.4,-3.4 4.2,-4.4 1.8,-1 3.9,-1.5 6.2,-1.5 2.4,0 4.4,0.5 6.2,1.5 1.8,1 3.1,2.4 4,4 0.9,1.7 1.4,3.6 1.4,5.6 0.1,1.1 0,1.8 -0.1,2.4 z m -4.8,-6.5 c -0.7,-1.2 -1.6,-2.1 -2.8,-2.7 -1.2,-0.6 -2.5,-0.9 -3.9,-0.9 -2.2,0 -4.1,0.7 -5.6,2.1 -1.5,1.4 -2.3,3.4 -2.4,6.1 h 15.6 c 0.1,-1.8 -0.2,-3.4 -0.9,-4.6 z"
   id="path3811"
   inkscape:connector-curvature="0"
   style="fill:#ffffff" />
				<path
   class="st1"
   d="m 540.7,222.5 c 1.7,1.4 2.7,3.4 3,5.8 h -3.9 c -0.2,-1.5 -0.8,-2.6 -1.8,-3.6 -1,-1 -2.4,-1.4 -4.1,-1.4 -1.5,0 -2.6,0.3 -3.4,1 -0.8,0.7 -1.2,1.6 -1.2,2.8 0,0.9 0.3,1.6 0.8,2.2 0.5,0.6 1.2,1 2,1.2 0.8,0.2 1.9,0.6 3.4,0.9 1.8,0.4 3.3,0.8 4.4,1.3 1.1,0.4 2.1,1.1 2.8,2.1 0.8,1 1.2,2.2 1.2,3.8 0,2 -0.7,3.6 -2.2,4.9 -1.5,1.3 -3.5,1.9 -6,1.9 -2.9,0 -5.3,-0.7 -7.1,-2.1 -1.8,-1.4 -2.9,-3.3 -3.2,-5.8 h 3.9 c 0.1,1.5 0.8,2.7 1.9,3.6 1.1,0.9 2.6,1.4 4.5,1.4 1.4,0 2.5,-0.4 3.3,-1.1 0.8,-0.7 1.2,-1.6 1.2,-2.8 0,-0.9 -0.3,-1.7 -0.8,-2.3 -0.6,-0.6 -1.3,-1 -2.1,-1.3 -0.8,-0.3 -2,-0.6 -3.4,-0.9 -1.8,-0.4 -3.3,-0.8 -4.3,-1.2 -1.1,-0.4 -2,-1.1 -2.8,-2 -0.8,-0.9 -1.1,-2.1 -1.1,-3.7 0,-2 0.8,-3.7 2.3,-5 1.5,-1.3 3.6,-1.9 6.2,-1.9 2.6,0 4.8,0.8 6.5,2.2 z"
   id="path3813"
   inkscape:connector-curvature="0"
   style="fill:#ffffff" />
				<path
   class="st1"
   d="m 551.2,211.7 c 0.5,-0.5 1.2,-0.7 2,-0.7 0.8,0 1.5,0.2 2,0.7 0.5,0.5 0.8,1.1 0.8,1.8 0,0.7 -0.3,1.3 -0.8,1.8 -0.5,0.5 -1.2,0.7 -2,0.7 -0.8,0 -1.5,-0.2 -2,-0.7 -0.5,-0.5 -0.8,-1.1 -0.8,-1.8 0,-0.7 0.3,-1.4 0.8,-1.8 z m 4,8.9 V 245 h -4 v -24.4 z"
   id="path3815"
   inkscape:connector-curvature="0"
   style="fill:#ffffff" />
				<path
   class="st1"
   d="m 579.5,222.1 c 1.6,1.2 2.8,2.8 3.4,4.8 v -6.2 h 4 v 24.8 c 0,2.3 -0.5,4.3 -1.4,6 -1,1.8 -2.3,3.1 -4,4.1 -1.7,1 -3.7,1.5 -6,1.5 -3.3,0 -6,-0.8 -8.1,-2.4 -2.1,-1.6 -3.4,-3.7 -4,-6.4 h 4 c 0.5,1.6 1.4,2.9 2.7,3.8 1.3,0.9 3,1.4 5.1,1.4 2.2,0 4,-0.7 5.5,-2.1 1.4,-1.4 2.2,-3.4 2.2,-5.9 v -6.6 c -0.7,2 -1.8,3.6 -3.4,4.8 -1.6,1.2 -3.7,1.8 -6,1.8 -2.2,0 -4.1,-0.5 -5.8,-1.5 -1.7,-1 -3,-2.5 -4,-4.3 -1,-1.8 -1.4,-4.1 -1.4,-6.7 0,-2.6 0.5,-4.8 1.4,-6.7 1,-1.9 2.3,-3.4 4,-4.4 1.7,-1 3.6,-1.5 5.8,-1.5 2.4,-0.1 4.4,0.5 6,1.7 z m -10.8,4.2 c -1.5,1.6 -2.2,3.8 -2.2,6.6 0,2.8 0.7,5 2.2,6.6 1.5,1.6 3.5,2.4 6,2.4 1.6,0 3,-0.4 4.3,-1.1 1.3,-0.7 2.2,-1.8 3,-3.1 0.8,-1.3 1.1,-2.9 1.1,-4.7 0,-1.8 -0.4,-3.4 -1.1,-4.7 -0.7,-1.4 -1.7,-2.4 -3,-3.1 -1.3,-0.7 -2.7,-1.1 -4.3,-1.1 -2.6,-0.2 -4.5,0.6 -6,2.2 z"
   id="path3817"
   inkscape:connector-curvature="0"
   style="fill:#ffffff" />
				<path
   class="st1"
   d="m 615.1,223 c 1.8,1.8 2.6,4.5 2.6,7.9 v 14.2 h -4 v -13.8 c 0,-2.4 -0.6,-4.3 -1.9,-5.6 -1.3,-1.3 -2.9,-2 -5.1,-2 -2.2,0 -4,0.7 -5.3,2.2 -1.3,1.4 -2,3.5 -2,6.3 v 12.9 h -4 v -24.4 h 4 v 5.8 c 0.6,-2 1.7,-3.5 3.3,-4.6 1.6,-1.1 3.4,-1.6 5.5,-1.6 2.9,-0.1 5.2,0.9 6.9,2.7 z"
   id="path3819"
   inkscape:connector-curvature="0"
   style="fill:#ffffff" />
			</g>
		</g>
	</g>
</g>
<g
   id="Zone_Protection"
   class="st2"
   style="display:none"
   transform="translate(-95.1,-95.1)">
	<path
   class="st3"
   d="m 0,1024.2 v 95.1 h 95.1 v -95.1 z m 46.8,47.6 -45.8,45.8 v -91.7 z M 1.7,1025.2 H 93.4 L 47.6,1071 Z m 45.8,47.3 45.8,45.8 H 1.7 Z m 0.8,-0.7 45.8,-45.8 v 91.7 z"
   id="path3828"
   inkscape:connector-curvature="0"
   style="display:inline;fill:#b1b3b5" />
	<path
   class="st3"
   d="m 596.1,1024.2 v 95.1 h 95.1 v -95.1 z m 46.8,47.6 -45.8,45.8 v -91.7 z m -45.1,-46.6 h 91.7 l -45.8,45.8 z m 45.8,47.3 45.8,45.8 h -91.7 z m 0.7,-0.7 45.8,-45.8 v 91.7 z"
   id="path3830"
   inkscape:connector-curvature="0"
   style="display:inline;fill:#b1b3b5" />
	<path
   class="st3"
   d="m 596.1,779.1 v 95.1 h 95.1 v -95.1 z m 46.8,47.6 -45.8,45.8 v -91.7 z m -45.1,-46.6 h 91.7 L 643.6,826 Z m 45.8,47.3 45.8,45.8 h -91.7 z m 0.7,-0.7 45.8,-45.8 v 91.7 z"
   id="path3832"
   inkscape:connector-curvature="0"
   style="display:inline;fill:#b1b3b5" />
	<path
   class="st3"
   d="m 0,779.1 v 95.1 H 95.1 V 779.1 Z M 46.8,826.7 1,872.5 V 780.8 Z M 1.7,780.1 H 93.4 L 47.5,826 Z m 45.8,47.3 45.8,45.8 H 1.7 Z m 0.8,-0.7 45.8,-45.8 v 91.7 z"
   id="path3834"
   inkscape:connector-curvature="0"
   style="display:inline;fill:#b1b3b5" />
</g>
</svg>